# xmcd
#
# Track frame offsets:
#	150
#	16147
#	30147
#	45710
#	56569
#	72655
#	85695
#	99543
#	112553
#	128274
#	138274
#	151407
#	169784
#	179928
#
# Disc length: 2519 seconds
#
# Revision: 0
# Processed by: cddbd v1.5.2PL0 Copyright (c) Steve Scherf et al.
# Submitted via: dBpowerAMP V4.0
#
DISCID=a809d50e
DTITLE=Blues4U - In The Mood
DYEAR=2008
DGENRE=Blues
TTITLE0=01 Who's Been Leaving
TTITLE1=02 Sweet Lovin' Mama
TTITLE2=03 Tip On In
TTITLE3=04 No I.D.
TTITLE4=05 My House
TTITLE5=06 Nine Below Zero
TTITLE6=07 I'm Gone
TTITLE7=08 New Adress
TTITLE8=09 Crack Up And Go
TTITLE9=10 Ninty Nine
TTITLE10=11 Come In The Mood
TTITLE11=12 Early In The Morning
TTITLE12=13 Best Of Friends
TTITLE13=14 Bye Bye Bird
EXTD=
EXTT0=
EXTT1=
EXTT2=
EXTT3=
EXTT4=
EXTT5=
EXTT6=
EXTT7=
EXTT8=
EXTT9=
EXTT10=
EXTT11=
EXTT12=
EXTT13=
PLAYORDER=
